<?xml version="1.0" encoding="UTF-8" standalone="no"?>
<!DOCTYPE svg PUBLIC "-//W3C//DTD SVG 1.1//EN" "http://www.w3.org/Graphics/SVG/1.1/DTD/svg11.dtd">
<svg width="100%" height="100%" viewBox="0 0 2481 3508" version="1.1" xmlns="http://www.w3.org/2000/svg" xmlns:xlink="http://www.w3.org/1999/xlink" xml:space="preserve" xmlns:serif="http://www.serif.com/" style="fill-rule:evenodd;clip-rule:evenodd;stroke-linecap:round;stroke-linejoin:round;stroke-miterlimit:1.5;">
    <rect x="1049.51" y="803.631" width="118.011" height="118.163" style="fill:rgb(235,235,235);stroke:black;stroke-width:4.17px;"/>
    <path d="M1051.54,906.628L1092.38,906.628C1100.24,906.628 1108.19,907.021 1116.05,906.628C1128.37,906.012 1140.97,904.572 1153.34,905.417C1157.62,905.71 1161.61,907.31 1165.99,907.31" style="fill:none;stroke:black;stroke-width:4.17px;"/>
    <path d="M1166.59,818.344L1102.06,818.344C1091.99,818.344 1081.55,817.461 1071.47,818.212C1068.25,818.452 1065.06,819.077 1061.82,819.272C1057.8,819.514 1054.13,818.59 1050.21,818.59" style="fill:none;stroke:black;stroke-width:4.17px;"/>
    <path d="M1066.6,820.403L1066.6,863.656C1066.6,866.408 1066.74,869.204 1066.47,871.944C1066.28,873.78 1065.48,875.001 1065.64,877.05C1066.02,881.842 1067.59,886.559 1068.04,891.371C1068.44,895.756 1067.49,899.919 1067.49,904.181" style="fill:none;stroke:black;stroke-width:4.17px;"/>
    <path d="M1150.1,904.832C1150.1,887.337 1149.38,869.715 1150.1,852.244C1150.54,841.636 1152.42,830.983 1152.42,820.375" style="fill:none;stroke:black;stroke-width:4.17px;"/>
    <path d="M1067.76,904.499C1076.07,895.621 1085.53,887.783 1093.6,878.643C1100.81,870.466 1106.47,861.058 1113.79,852.963C1117.62,848.732 1122.59,846.065 1126.52,842.078C1127.93,840.648 1128.85,838.814 1130.18,837.413C1131.52,836.009 1134.94,834.959 1136.66,833.849C1140.59,831.304 1145.39,828.649 1148.71,825.324C1149.25,824.79 1152.77,821.788 1152.77,821.008" style="fill:none;stroke:black;stroke-width:4.17px;"/>
    <path d="M1067.43,875.117C1072.71,871.78 1076.65,865.603 1080.76,861.041C1089.37,851.474 1098.15,842.096 1106.9,832.67C1110.12,829.207 1112.02,824.482 1115.61,821.467C1116.26,820.922 1117.84,818.58 1118.65,818.58" style="fill:none;stroke:black;stroke-width:4.17px;"/>
    <path d="M1066.51,846.984C1066.51,844.371 1069.33,841.847 1070.88,839.982C1075.62,834.29 1080.64,829.406 1085.82,824.229C1087.16,822.881 1088.82,821.486 1090.49,820.652C1090.84,820.478 1091,819.328 1091.51,819.328" style="fill:none;stroke:black;stroke-width:4.17px;"/>
    <path d="M1148.82,851.309C1144.55,852.941 1141.35,858.117 1138.08,861.033C1127.1,870.83 1117.95,882.119 1108.96,893.666C1107.07,896.105 1105.25,899.09 1103.04,901.255C1101.68,902.582 1098.11,903.522 1098.11,905.341" style="fill:none;stroke:black;stroke-width:4.17px;"/>
    <path d="M1123.27,906.4C1128.2,901.463 1131.73,894.98 1136.51,889.861C1139.16,887.021 1141.85,883.844 1144.59,881.107C1146.11,879.583 1147.64,878.908 1148.92,877.194" style="fill:none;stroke:black;stroke-width:4.17px;"/>
</svg>
