<?xml version="1.0" encoding="UTF-8" standalone="no"?>
<!DOCTYPE svg PUBLIC "-//W3C//DTD SVG 1.1//EN" "http://www.w3.org/Graphics/SVG/1.1/DTD/svg11.dtd">
<svg width="100%" height="100%" viewBox="0 0 9934 14044" version="1.1" xmlns="http://www.w3.org/2000/svg" xmlns:xlink="http://www.w3.org/1999/xlink" xml:space="preserve" xmlns:serif="http://www.serif.com/" style="fill-rule:evenodd;clip-rule:evenodd;stroke-linecap:round;stroke-linejoin:round;stroke-miterlimit:1.5;">
    <g id="Layer1">
        <path d="M4090.19,4058.76C4088.74,4059.73 4055.87,4032.36 4050.68,4026.03C4044,4017.88 4038.89,4007.36 4037.56,3996.7C4037.04,3992.53 4035.94,3987.45 4037.27,3983.28C4038.73,3978.66 4041.89,3975.13 4044.93,3971.49C4045.76,3970.49 4047.18,3969.87 4048.18,3969.13C4054.71,3964.23 4063.4,3962.92 4071.47,3964.26C4074.59,3964.78 4078.31,3965.5 4080.46,3967.65C4083.77,3970.96 4085.53,3974.67 4086.65,3979.15C4087.21,3981.39 4087.39,3991.82 4087.39,3993.45C4087.39,3994.11 4090.76,3980.42 4093.29,3976.2C4094.93,3973.46 4096.53,3970.95 4098.45,3968.39C4102.8,3962.58 4110.97,3960.72 4117.76,3960.72C4119.52,3960.72 4121.64,3960.38 4123.36,3960.72C4125.33,3961.12 4128.95,3961.48 4130.29,3962.93C4137.13,3970.37 4137.18,3983.03 4136.04,3993.3C4135.14,4001.41 4134.42,4009.66 4130.73,4017.04C4128.64,4021.24 4125.39,4025.33 4122.03,4028.69C4116.52,4034.2 4110.98,4040.34 4105.52,4045.93C4100.63,4050.95 4095.98,4054.9 4090.19,4058.76Z" style="fill:white;stroke:black;stroke-width:4.17px;"/>
    </g>
</svg>
