<?xml version="1.0" encoding="UTF-8" standalone="no"?>
<!DOCTYPE svg PUBLIC "-//W3C//DTD SVG 1.1//EN" "http://www.w3.org/Graphics/SVG/1.1/DTD/svg11.dtd">
<svg width="100%" height="100%" viewBox="0 0 118 119" version="1.1" xmlns="http://www.w3.org/2000/svg" xmlns:xlink="http://www.w3.org/1999/xlink" xml:space="preserve" xmlns:serif="http://www.serif.com/" style="fill-rule:evenodd;clip-rule:evenodd;stroke-linecap:round;stroke-linejoin:round;stroke-miterlimit:1.5;">
    <g id="Artboard1" transform="matrix(0.861845,0,0,0.700185,-232.647,-72.433)">
        <rect x="269.941" y="103.448" width="136.663" height="169.244" style="fill:none;"/>
        <g transform="matrix(0.898441,0,0,1.11827,290.71,107.491)">
            <rect x="-19.859" y="-0.077" width="144.9" height="143.855" style="fill:white;"/>
        </g>
        <g transform="matrix(1.1603,0,0,1.42819,269.941,103.448)">
            <path d="M116.668,2.789C115.842,2.789 113.147,2.826 110.571,2.787C108.815,2.76 107.353,2.738 107.138,2.738C105.007,2.738 102.971,2.683 100.889,2.683C92.547,2.683 84.102,2.792 75.731,2.792C71.741,2.792 53.661,3.151 53.354,2.998C52.679,2.661 2.62,2.756 2.013,2.756" style="fill:none;stroke:black;stroke-width:2.08px;"/>
        </g>
        <g transform="matrix(1.1603,0,0,1.42819,269.941,103.448)">
            <path d="M1.186,115.88C12.213,115.88 33.399,115.786 47.808,115.781C55.034,115.779 60.426,115.777 61.719,115.777C62.804,115.777 66.708,115.934 66.858,115.934L77.735,115.934C78.894,115.934 88.096,115.777 89.211,115.777C91.552,115.777 106.701,116.788 116.686,116.788" style="fill:none;stroke:black;stroke-width:2.08px;"/>
        </g>
        <g transform="matrix(1.1603,0,0,1.42819,269.941,103.448)">
            <path d="M2.874,117.148C2.874,116.456 2.683,85.047 2.683,82.044C2.683,81.834 2.597,46.388 2.597,44.96C2.597,39.808 2.511,34.65 2.511,29.544L2.511,12.844C2.511,12.755 2.587,10.148 2.662,7.387C2.733,4.743 2.803,1.958 2.803,1.111" style="fill:none;stroke:black;stroke-width:2.08px;"/>
        </g>
        <g transform="matrix(1.1603,0,0,1.42819,269.941,103.448)">
            <path d="M115.856,117.33C115.856,116.519 115.477,106.836 115.444,95.412C115.416,85.449 115.39,74.38 115.39,67.313C115.39,62.578 115.093,19.071 115.093,17.644C115.093,10.754 115.463,8.456 115.463,1.8" style="fill:none;stroke:black;stroke-width:2.08px;"/>
        </g>
    </g>
</svg>
