<?xml version="1.0" encoding="UTF-8" standalone="no"?>
<!DOCTYPE svg PUBLIC "-//W3C//DTD SVG 1.1//EN" "http://www.w3.org/Graphics/SVG/1.1/DTD/svg11.dtd">
<svg width="100%" height="100%" viewBox="0 0 2368 2411" version="1.1" xmlns="http://www.w3.org/2000/svg" xmlns:xlink="http://www.w3.org/1999/xlink" xml:space="preserve" xmlns:serif="http://www.serif.com/" style="fill-rule:evenodd;clip-rule:evenodd;stroke-linejoin:round;stroke-miterlimit:2;">
    <g id="Artboard1" transform="matrix(1,0,0,1,-26.864,-12.7134)">
        <rect x="26.864" y="12.713" width="2367.2" height="2410.13" style="fill:none;"/>
        <g transform="matrix(1,0,0,1,0.863965,0.713413)">
            <path d="M1060.47,825.613C1056.64,823.697 1023.71,622.871 1009.46,618.387C970.381,606.087 892.705,551.649 854.771,542.165C742.93,514.204 613.736,487.623 494.989,507.414C456.409,513.844 421.85,540.793 382.558,544.209C332.186,548.59 223.01,542.779 259.905,628.022C278.835,671.761 153.214,752.241 141.34,799.736C120.969,881.217 97.542,1127.43 139.296,1200.4C184.397,1279.22 234.347,1364.55 315.098,1413C446.989,1492.14 596.342,1483.09 742.339,1453.88C754.464,1451.46 847.662,1512.75 913.432,1484.87C983.052,1455.37 1025.09,1336.68 1025.32,1336.68" style="fill:rgb(0,116,24);"/>
            <path d="M743.204,1461.87C744.721,1462.42 757.238,1467.02 769.038,1472.12C790.996,1481.61 821.751,1494.26 853.017,1498.6C874.803,1501.62 896.823,1500.6 916.553,1492.24C942.884,1481.08 965.611,1457.95 983.734,1432.7C1010.13,1395.91 1026.81,1354.87 1031.46,1342.94L1032.64,1339.91C1033.08,1338.93 1033.32,1337.83 1033.32,1336.68C1033.32,1332.27 1029.74,1328.68 1025.32,1328.68C1024.83,1328.68 1020.3,1328.35 1018.01,1333.43C1017.9,1333.66 1017.41,1334.95 1016.56,1337.13C1012.09,1348.59 996.091,1388.03 970.735,1423.37C954.356,1446.19 934.106,1467.42 910.31,1477.51C893.209,1484.76 874.098,1485.37 855.215,1482.75C825.478,1478.62 796.27,1466.46 775.386,1457.43C764.307,1452.65 755.43,1448.7 749.817,1447.01C745.767,1445.79 742.671,1445.66 740.77,1446.04C596.73,1474.85 449.337,1484.21 319.214,1406.14C239.642,1358.4 190.682,1274.1 146.239,1196.43C134.144,1175.29 128.005,1139.04 125.459,1096.6C119.359,994.885 134.958,858.248 149.101,801.677C151.721,791.198 160.627,779.14 172.01,766.054C190.563,744.727 215.818,721.298 235.733,699.013C249.769,683.306 261.162,668.044 266.412,654.432C270.577,643.631 271.053,633.64 267.246,624.845C259.306,606.498 258.534,593.107 263.557,583.197C268.508,573.427 278.76,567.512 291.057,563.374C319.458,553.819 358.567,554.326 383.251,552.179C403.75,550.397 423.052,542.595 442.224,534.281C459.994,526.574 477.648,518.414 496.304,515.305C613.982,495.692 741.996,522.217 852.831,549.926C871.326,554.55 899.443,570.268 927.766,586.193C956.514,602.358 985.44,618.781 1005.32,625.451C1006.07,626.941 1008.02,630.935 1009.31,634.623C1013.95,648.012 1019.31,670.027 1024.66,694.429C1036.34,747.742 1047.93,812.248 1051.81,825.458C1053.27,830.458 1056.11,832.375 1056.9,832.768C1060.85,834.743 1065.66,833.14 1067.63,829.19C1068.9,826.65 1068.69,823.753 1067.33,821.486L1067.16,820.952C1063.31,807.852 1051.87,743.873 1040.29,691.003C1033.2,658.663 1025.92,630.387 1020.35,619.411C1017.6,613.992 1014.18,611.484 1011.86,610.756C992.695,604.723 964.102,588.269 935.608,572.247C905.838,555.508 876.151,539.264 856.712,534.404C743.864,506.192 613.489,479.554 493.674,499.522C473.751,502.843 454.835,511.372 435.858,519.602C418.282,527.224 400.658,534.605 381.865,536.24C356.176,538.473 315.512,538.265 285.955,548.21C269.272,553.823 256.002,562.71 249.285,575.964C242.638,589.078 242.054,606.92 252.563,631.2C255.501,637.99 253.299,645.826 248.866,654.464C243.417,665.081 234.369,676.527 223.803,688.351C203.842,710.688 178.534,734.176 159.938,755.553C146.556,770.938 136.659,785.476 133.579,797.796C119.203,855.297 103.287,994.173 109.488,1097.56C112.215,1143.02 119.395,1181.73 132.352,1204.38C178.112,1284.35 229.052,1370.7 310.982,1419.86C444.427,1499.93 595.47,1491.35 743.204,1461.87Z"/>
        </g>
        <g transform="matrix(1,0,0,1,0.863965,0.713413)">
            <path d="M1176.45,1400.72C1176.81,1406.75 1223.94,1553.53 1225.31,1559.54C1250.27,1669.4 1435.5,1770.63 1523.23,1688.97C1673.36,1549.23 1840.07,1745.8 2011.8,1711.46C2027.56,1708.3 2041.74,1695.34 2054.73,1691.01C2071.09,1685.56 2094.37,1673.05 2101.74,1658.31C2106.59,1648.62 2124.81,1642.25 2128.32,1631.73C2136.85,1606.14 2145.32,1574.59 2154.89,1545.88C2159.97,1530.63 2157.77,1504.95 2156.94,1488.64C2152.88,1409.59 2149.36,1330.52 2144.67,1251.51C2143.47,1231.26 2128.59,1211.44 2122.18,1192.23C2095.46,1112.06 2031.41,1035.63 1946.38,1014.38C1757.29,967.107 1528.94,937.979 1461.9,1139.08C1452.75,1166.55 1436.32,1239.79 1436.32,1269.6" style="fill:rgb(0,116,24);"/>
            <path d="M1168.46,1401.2C1168.83,1407.28 1216.13,1555.25 1217.51,1561.31C1233.03,1629.63 1307.97,1695.13 1385.38,1718C1438.05,1733.56 1491.57,1729.37 1528.68,1694.83C1601.18,1627.34 1677.77,1641.83 1756.88,1668.28C1840.08,1696.09 1926.14,1736.75 2013.37,1719.3C2022.1,1717.56 2030.44,1713.21 2038.34,1708.58C2044.97,1704.71 2051.23,1700.61 2057.26,1698.6C2075.36,1692.57 2100.74,1678.2 2108.9,1661.88C2109.9,1659.89 2111.86,1658.23 2113.99,1656.5C2117.05,1654.02 2120.56,1651.64 2123.76,1649.15C2129.44,1644.74 2134.06,1639.8 2135.91,1634.26C2144.44,1608.67 2152.91,1577.12 2162.48,1548.4C2167.82,1532.37 2165.81,1505.38 2164.93,1488.23C2160.87,1409.16 2157.35,1330.07 2152.66,1251.03C2152,1239.93 2147.73,1228.9 2142.61,1218.06C2138.08,1208.47 2132.88,1199.02 2129.77,1189.7C2102.23,1107.06 2035.96,1028.53 1948.32,1006.62C1852.79,982.737 1747.34,963.59 1657.31,975.66C1565.19,988.01 1488.96,1032.6 1454.31,1136.55C1444.98,1164.55 1428.32,1239.22 1428.32,1269.6C1428.32,1274.02 1431.9,1277.6 1436.32,1277.6C1440.73,1277.6 1444.32,1274.02 1444.32,1269.6C1444.32,1240.37 1460.51,1168.55 1469.49,1141.61C1501.88,1044.46 1573.34,1003.06 1659.43,991.518C1747.61,979.696 1850.88,998.75 1944.44,1022.14C2026.85,1042.74 2088.7,1117.05 2114.6,1194.76C2117.89,1204.65 2123.34,1214.71 2128.14,1224.89C2132.37,1233.83 2136.14,1242.83 2136.68,1251.98C2141.37,1330.97 2144.89,1410.02 2148.95,1489.05C2149.74,1504.52 2152.12,1528.88 2147.3,1543.35C2137.73,1572.06 2129.26,1603.61 2120.73,1629.2C2119.43,1633.11 2114.95,1635.83 2110.79,1638.89C2104.09,1643.82 2097.49,1648.93 2094.59,1654.73C2092.13,1659.64 2087.43,1664.13 2081.96,1668.19C2072.78,1674.99 2061.33,1680.38 2052.2,1683.42C2045.24,1685.74 2037.92,1690.3 2030.26,1694.77C2023.89,1698.5 2017.26,1702.2 2010.23,1703.61C1925.72,1720.51 1842.56,1680.05 1761.95,1653.1C1677.24,1624.78 1595.41,1610.85 1517.78,1683.11C1484.71,1713.9 1436.84,1716.52 1389.92,1702.66C1317.94,1681.4 1247.54,1621.28 1233.11,1557.76C1231.76,1551.8 1184.8,1406.22 1184.43,1400.24C1184.17,1395.83 1180.38,1392.47 1175.97,1392.73C1171.56,1393 1168.2,1396.79 1168.46,1401.2Z"/>
        </g>
        <g transform="matrix(1,0,0,1,0.863965,0.713413)">
            <path d="M1137.5,1062.87C1141,1066.37 1174.62,1188.41 1242.75,1195.62C1317.86,1203.56 1428.44,1095.62 1439.42,1073.66C1455.53,1041.44 1463.2,989.667 1449.64,948.964C1438.63,915.95 1433.76,888.114 1410.8,865.151C1388.06,842.415 1270.22,796.388 1223.75,811.749C1138.19,840.028 1116.23,957.522 1116.23,972.383" style="fill:rgb(0,116,24);"/>
            <path d="M1130.87,1067.34L1130.93,1067.48C1133.9,1074.19 1143.09,1102.74 1158.87,1131.68C1177.47,1165.82 1205.39,1199.71 1241.91,1203.57C1273.48,1206.91 1311.17,1191.23 1345.58,1169.18C1396.27,1136.7 1439.77,1090.84 1446.57,1077.24C1463.47,1043.44 1471.46,989.129 1457.23,946.434C1445.79,912.116 1440.33,883.364 1416.45,859.494C1402.33,845.371 1352.94,822.173 1305.15,809.625C1272.63,801.085 1240.88,797.659 1221.24,804.153C1176.22,819.033 1147.68,857.135 1130.65,893.721C1113.76,930.019 1108.23,964.625 1108.23,972.383C1108.23,976.798 1111.82,980.383 1116.23,980.383C1120.65,980.383 1124.23,976.798 1124.23,972.383C1124.23,965.279 1129.69,933.708 1145.16,900.474C1160.49,867.528 1185.72,832.744 1226.26,819.345C1243.79,813.549 1272.06,817.479 1301.09,825.1C1345.62,836.793 1391.98,857.648 1405.14,870.808C1427.2,892.864 1431.48,919.784 1442.05,951.494C1454.95,990.205 1447.58,1039.44 1432.26,1070.08C1425.88,1082.84 1384.5,1125.24 1336.95,1155.71C1305.86,1175.63 1272.11,1190.68 1243.59,1187.66C1211.97,1184.32 1189.03,1153.59 1172.91,1124.02C1159.25,1098.95 1150.69,1074.16 1146.93,1064.37C1145.31,1060.17 1143.75,1057.8 1143.16,1057.21C1140.04,1054.09 1134.97,1054.09 1131.84,1057.21C1129.09,1059.96 1128.77,1064.22 1130.87,1067.34Z"/>
        </g>
        <g transform="matrix(1,0,0,1,0.863965,0.713413)">
            <path d="M1069.5,748.9C1228.75,742.53 1912.26,605.348 1831.91,364.318C1813.95,310.471 1765.72,279.735 1727.65,241.666C1693.82,207.835 1641.88,190.599 1598.87,172.162C1533.26,144.046 1458.66,127.018 1388.31,116.968C1192.34,88.974 1062.04,171.214 887.479,229.4C851.808,241.291 687.351,292.566 668.748,311.169C596.265,383.654 872.455,458.693 955.206,458.693" style="fill:rgb(0,116,24);"/>
            <path d="M1069.82,756.893C1182,752.406 1552.65,683.3 1737.23,559.116C1819.37,503.847 1864.69,437.352 1839.5,361.788C1821.14,306.725 1772.24,274.937 1733.31,236.009C1698.78,201.482 1645.92,183.625 1602.02,164.809C1535.78,136.422 1460.47,119.195 1389.44,109.049C1192.08,80.855 1060.75,163.211 884.949,221.811C859.924,230.153 771.656,257.842 714.551,280.096C688.66,290.186 669.008,299.595 663.091,305.512C652.434,316.169 648.29,327.034 648.789,337.616C649.488,352.465 660.029,367.534 678.168,381.362C740.825,429.129 896.239,466.693 955.206,466.693C959.621,466.693 963.206,463.108 963.206,458.693C963.206,454.278 959.621,450.693 955.206,450.693C898.321,450.693 748.313,414.718 687.868,368.638C674.346,358.329 665.292,347.932 664.771,336.863C664.455,330.169 667.663,323.567 674.405,316.826C679.649,311.581 697.411,303.948 720.36,295.004C777.212,272.849 865.094,245.295 890.009,236.99C1063.33,179.216 1192.6,97.092 1387.18,124.888C1456.85,134.84 1530.74,151.67 1595.71,179.515C1637.85,197.573 1688.86,214.188 1721.99,247.322C1741.02,266.351 1762.59,283.547 1781.65,302.715C1799.85,321.021 1815.75,341.143 1824.32,366.849C1847.34,435.907 1803.37,495.33 1728.3,545.841C1546.03,668.469 1179.95,736.475 1069.18,740.906C1064.77,741.083 1061.33,744.808 1061.51,749.22C1061.69,753.631 1065.41,757.07 1069.82,756.893Z"/>
        </g>
        <g transform="matrix(1,0,0,1,0.863965,0.713413)">
            <path d="M1188.54,1414.6C1188.54,1454.73 1217.84,1507.91 1223.29,1551.56C1232.16,1622.46 1226.11,1695.31 1235.56,1766.2C1243.25,1823.9 1235.56,1887.78 1235.56,1946.09C1235.56,2033.59 1245.82,2129.82 1231.47,2215.93C1223.88,2261.47 1213.07,2317.58 1213.07,2361.07L1212.9,2361.77C1215.11,2361.77 1003.27,2375.69 1005.67,2365.97C1009.13,2351.97 1042.75,2168.82 1051.58,2142.34C1072.13,2080.67 1066.34,2007.2 1082.24,1944.05C1092.74,1902.37 1108.82,1746.59 1108.82,1713.05C1108.82,1677.32 1050.13,1384.27 1031.14,1308.3C1022.85,1275.17 1023.27,1237.68 1012.74,1206.09C1004.35,1180.92 1007.34,1163.42 1007.34,1136.25C1007.34,1133.19 1007.34,1133.19 1008.01,1133.9C999.609,1141.94 995.714,1099.09 980.884,1094.11C943.536,1081.58 853.282,1059.64 819.859,996.657C777.211,916.293 735.492,798.555 753.359,720.805C767.447,781.276 809.906,955.919 898.262,1005.75C916.015,1015.77 933.676,1024.48 953.456,1034.37C955.824,1035.56 1027.05,1052 1027.05,1038.46L1028.15,1035.31C1028.15,1016.98 1025,927.758 1025,926.03C1025,850.017 1035.11,762.158 1012.74,695.033C1009.47,685.221 1016.01,672.138 1012.74,662.326C1004.79,638.489 1004.34,610.562 996.385,586.69C959.244,475.27 938.135,392.997 1061.8,331.163C1086.41,318.856 1121.34,304.588 1147.66,304.588C1147.66,304.588 1174.19,282.342 1146.98,309.551C1143.07,313.461 1070.44,355.813 1043.14,387.212C1028.06,404.568 1051.84,417.996 1049.53,421.108C1004.13,482.507 1090.83,965.381 1135.8,1010.35C1136.93,1011.48 1143.77,1011.32 1151.77,1010.71C1164.03,1009.78 1291.27,996.07 1292.62,996.07L1293.06,995.936C1293.06,998.055 1194.86,1033.26 1192.63,1034.37C1164.99,1048.19 1157.44,1085.92 1139.48,1103.88C1139,1104.36 1139.48,1105.24 1139.48,1105.92C1139.48,1156.8 1141.18,1260.76 1162.13,1302.67L1161.73,1306.09C1173.7,1294.12 1242.97,1286 1260.09,1281.72C1311.02,1268.99 1444.45,1249.21 1493.13,1273.55C1531.6,1292.78 1664.36,1234.01 1709.98,1234.01C1745.92,1234.01 1541.74,1348.42 1514.04,1334.57C1470.37,1312.74 1344.28,1349.06 1307.11,1361.45C1273.95,1372.5 1199.6,1399.45 1178.32,1420.73" style="fill:rgb(84,0,0);"/>
            <path d="M1019.77,1035.04C1018.03,1035.32 1014.53,1035.81 1011.7,1035.77C991.888,1035.52 958.591,1028 957.034,1027.22C937.38,1017.39 919.831,1008.73 902.193,998.786C868.093,979.553 841.343,940.838 820.332,897.828C787.975,831.594 769.523,754.929 761.15,718.99C760.305,715.363 757.07,712.799 753.346,712.805C749.623,712.811 746.396,715.384 745.562,719.013C727.345,798.287 769.308,918.468 812.792,1000.41C826.87,1026.93 850.408,1046.67 876.239,1061.5C913.573,1082.93 955.604,1094.07 978.339,1101.69C979.823,1102.19 980.833,1103.72 981.941,1105.38C983.88,1108.28 985.51,1111.9 987.007,1115.59C990.791,1124.91 994.018,1134.53 997.212,1138.41C997.89,1139.24 998.598,1139.93 999.321,1140.5C999.078,1166.29 996.898,1183.87 1005.15,1208.62C1015.62,1240.02 1015.14,1277.31 1023.38,1310.24C1042.28,1385.85 1100.82,1677.49 1100.82,1713.05C1100.82,1746.31 1084.89,1900.77 1074.48,1942.1C1058.63,2005.06 1064.49,2078.32 1043.99,2139.81C1035.14,2166.37 1001.37,2350.01 997.903,2364.05C997.174,2367.01 997.718,2369.92 1000.41,2372.49C1001.58,2373.61 1004.2,2375.17 1008.53,2375.93C1035.26,2380.64 1178.4,2372.11 1208.1,2370.14C1211.7,2369.9 1213.78,2369.73 1213.98,2369.7C1217.54,2369.22 1218.83,2367.18 1219.05,2366.91C1220.7,2364.94 1221.26,2362.99 1221.04,2361.11L1221.07,2361.07C1221.07,2317.97 1231.84,2262.38 1239.36,2217.24C1253.78,2130.72 1243.56,2034.02 1243.56,1946.09C1243.56,1887.44 1251.23,1823.18 1243.49,1765.14C1234.04,1694.27 1240.09,1621.45 1231.23,1550.57C1228.44,1528.26 1219.63,1503.5 1211.45,1479.21C1204.03,1457.17 1197.07,1435.56 1196.57,1416.74C1225.68,1398.2 1282.2,1378.18 1309.63,1369.04C1335.32,1360.47 1404,1340.3 1457.69,1336.38C1479.28,1334.81 1498.33,1335.66 1510.46,1341.73C1513.42,1343.21 1517.69,1344 1523.14,1343.64C1532.24,1343.04 1545.77,1339.24 1561.57,1333.21C1611.86,1314.02 1686.47,1272.46 1711.17,1251.95C1715.73,1248.16 1718.79,1244.85 1720.28,1242.4C1721.77,1239.96 1722.23,1237.75 1722.21,1235.99C1722.16,1231.5 1719.62,1226.01 1709.98,1226.01C1682.23,1226.01 1622.62,1247.23 1570.99,1260.18C1551.24,1265.13 1532.71,1268.83 1517.81,1269.35C1509.17,1269.65 1501.9,1268.99 1496.71,1266.39C1481.31,1258.69 1457.91,1254.96 1431.19,1254.18C1371.3,1252.42 1294.25,1264.94 1258.15,1273.96C1246.15,1276.96 1208.56,1281.85 1182.97,1288.62C1176.89,1290.23 1171.44,1292.04 1166.95,1293.95C1148.77,1250.32 1147.5,1155.35 1147.48,1107.02C1155.74,1097.64 1162.1,1084.39 1169.39,1071.51C1176.19,1059.5 1183.82,1047.72 1196.21,1041.53C1198.21,1040.53 1277.74,1012.01 1293.63,1004.78C1297.36,1003.08 1299.17,1001.19 1299.58,1000.6C1300.79,998.885 1301.06,997.248 1301.06,995.936C1301.06,993.4 1299.86,991.014 1297.82,989.506C1295.84,988.043 1293.31,987.573 1290.95,988.224C1275.74,989.736 1162.7,1001.86 1151.16,1002.74C1147.13,1003.04 1142.24,1003.06 1139.97,1003.05C1132.72,994.285 1124.75,973.916 1116.11,946.135C1093.38,873.067 1068.85,750.261 1055.27,641.107C1047.54,578.962 1043.36,521.259 1045.16,479.777C1046.28,454.061 1049.27,434.926 1055.97,425.865C1057.76,423.435 1058.9,418.539 1054.58,413.086C1053.29,411.465 1051.27,409.348 1049.4,406.806C1047.72,404.537 1045.92,401.864 1046.11,398.701C1046.23,396.732 1047.24,394.697 1049.18,392.46C1067.89,370.942 1108.43,344.276 1132.33,328.835C1143.57,321.576 1151.38,316.467 1152.64,315.207C1161.83,306.015 1165.4,301.674 1166.14,300.326C1167.98,296.973 1167.19,294.504 1166.75,293.308C1165.82,290.799 1164.05,289.064 1161.28,288.309C1160.22,288.019 1157.89,287.597 1154.99,289.07C1153.08,290.04 1147.8,294.196 1144.76,296.641C1117.74,297.605 1082.95,311.645 1058.22,324.008C1006.33,349.952 979.056,379.649 967.121,413.039C949.541,462.22 965.841,520.36 988.795,589.22C996.753,613.092 997.204,641.018 1005.15,664.856C1006.76,669.696 1005.04,675.489 1004.33,681.104C1003.6,686.905 1003.48,692.563 1005.15,697.563C1027.28,763.948 1017,850.854 1017,926.03C1017,927.719 1020.01,1012.99 1020.15,1033.96L1019.77,1035.04ZM1208.08,2368.15C1208.48,2368.5 1209.81,2369.64 1212.43,2369.76C1210.84,2369.67 1209.33,2369.1 1208.08,2368.15ZM1213.07,2369.07L1220.39,2363.34L1219.69,2362.45L1213.07,2369.07ZM1204.94,2360.93C1204.72,2362.98 1205.31,2365.06 1206.6,2366.7C1206.85,2367.03 1207.13,2367.33 1207.43,2367.61C1205.14,2365.55 1204.64,2363.18 1204.94,2360.93ZM1153.79,1305.15C1153.79,1305.15 1153.92,1304.04 1153.92,1304.04C1133.57,1260.02 1131.48,1156.87 1131.48,1105.92C1131.48,1106.24 1131.56,1106.93 1131.56,1106.93C1131.56,1106.93 1131.65,1100.39 1133.82,1098.22C1142.35,1089.69 1148.26,1076.36 1155.46,1063.63C1163.84,1048.84 1173.8,1034.84 1189.05,1027.22C1190.1,1026.69 1212.19,1018.69 1235.43,1010.09C1199.61,1013.9 1159.02,1018.19 1152.37,1018.69C1145.02,1019.25 1138.52,1019.32 1135.55,1018.72C1132.81,1018.17 1131.1,1016.96 1130.14,1016C1121.59,1007.45 1111.17,984.115 1100.83,950.887C1077.9,877.151 1053.09,753.232 1039.39,643.081C1030.21,569.241 1026.06,501.551 1030.64,459.076C1032.43,442.52 1035.71,429.548 1040.23,420.978C1038.9,419.392 1037.22,417.31 1035.94,415.503C1032.34,410.401 1029.58,404.121 1030.18,397.155C1030.59,392.439 1032.47,387.292 1037.11,381.963C1056.35,359.829 1097.58,332.258 1122.62,316.061C1102.82,320.936 1081.74,330.137 1065.38,338.318C1018.33,361.841 993.008,388.151 982.187,418.424C965.633,464.738 982.358,519.314 1003.97,584.16C1011.93,608.033 1012.38,635.959 1020.33,659.796C1022,664.797 1021.88,670.455 1021.15,676.255C1020.44,681.87 1018.71,687.663 1020.33,692.503C1042.95,760.367 1033,849.18 1033,926.03C1033,927.758 1036.15,1016.98 1036.15,1035.31C1036.15,1036.21 1036,1037.11 1035.7,1037.96C1035.46,1038.65 1035.22,1039.28 1034.97,1039.87C1034.62,1043.08 1033.02,1045.78 1030.13,1047.89C1026.8,1050.31 1020.09,1051.88 1011.5,1051.77C989.133,1051.49 951.637,1042.41 949.879,1041.53C929.971,1031.58 912.199,1022.8 894.332,1012.72C857.747,992.087 828.499,950.996 805.955,904.851C783.587,859.062 767.704,808.394 757.137,769.1C759.204,840.779 792.953,928.891 826.926,992.907C839.587,1016.76 860.973,1034.28 884.205,1047.62C920.467,1068.44 961.346,1079.12 983.429,1086.53C987.882,1088.02 991.921,1091.51 995.246,1096.49C998.876,1101.92 1001.81,1109.3 1004.35,1116.08C1005.51,1119.17 1007.14,1122.91 1008.27,1125.42C1010.02,1125.57 1011.94,1126.4 1013.84,1128.42C1016.1,1130.83 1016.59,1134.27 1015.34,1137.12C1015.28,1162.81 1012.33,1179.57 1020.33,1203.56C1030.92,1235.33 1030.57,1273.04 1038.9,1306.36C1057.98,1382.69 1116.82,1677.15 1116.82,1713.05C1116.82,1746.87 1100.59,1903.97 1090,1946C1074.05,2009.34 1079.79,2083.01 1059.17,2144.87C1051.14,2168.96 1022.59,2322.99 1015,2360.51C1017.34,2360.77 1020.2,2361.04 1023.02,2361.15C1065.65,2362.85 1175.92,2356.21 1205.15,2354.29C1206.16,2311.47 1216.31,2258.24 1223.58,2214.62C1237.86,2128.93 1227.56,2033.17 1227.56,1946.09C1227.56,1888.12 1235.28,1824.62 1227.63,1767.26C1218.17,1696.34 1224.22,1623.48 1215.35,1552.55C1212.69,1531.21 1204.12,1507.56 1196.29,1484.32C1189.72,1464.82 1183.69,1445.58 1181.46,1428.09C1178.55,1429.33 1175.04,1428.76 1172.66,1426.39C1169.54,1423.27 1169.54,1418.19 1172.66,1415.07C1194.49,1393.24 1270.56,1365.19 1304.58,1353.86C1330.94,1345.07 1401.43,1324.45 1456.53,1320.43C1481.56,1318.6 1503.55,1320.38 1517.62,1327.42C1518.95,1328.08 1521.02,1327.83 1523.63,1327.54C1530.03,1326.83 1538.51,1324.48 1548.33,1321.03C1588.7,1306.84 1650.15,1274.32 1684.32,1251.68C1688.33,1249.02 1692.26,1246.07 1695.67,1243.36C1665.58,1248.22 1617.48,1265.01 1574.89,1275.7C1553.9,1280.96 1534.19,1284.79 1518.37,1285.34C1506.53,1285.76 1496.67,1284.26 1489.55,1280.7C1470.93,1271.39 1439.3,1269.18 1404.99,1270.24C1351.79,1271.88 1292.23,1281.93 1262.03,1289.48C1250.07,1292.48 1212.58,1297.34 1187.07,1304.09C1178.34,1306.4 1171.1,1308.53 1167.85,1311.33C1165.29,1315.57 1161.73,1314.09 1161.73,1314.09L1153.79,1305.15ZM1019.85,1036.3C1019.43,1036.99 1019.05,1037.81 1019.05,1038.46C1019.05,1042.88 1022.63,1046.46 1027.05,1046.46L1019.85,1036.3ZM1034.88,1040.07C1034.09,1041.95 1033.28,1043.32 1032.5,1044.31C1033.69,1043.2 1034.55,1041.73 1034.88,1040.07ZM1035.04,1038.88C1035.04,1038.74 1035.05,1038.6 1035.05,1038.46L1035.04,1038.88Z"/>
        </g>
    </g>
</svg>
