<?xml version="1.0" encoding="UTF-8" standalone="no"?>
<!DOCTYPE svg PUBLIC "-//W3C//DTD SVG 1.1//EN" "http://www.w3.org/Graphics/SVG/1.1/DTD/svg11.dtd">
<svg width="100%" height="100%" viewBox="0 0 119 119" version="1.1" xmlns="http://www.w3.org/2000/svg" xmlns:xlink="http://www.w3.org/1999/xlink" xml:space="preserve" xmlns:serif="http://www.serif.com/" style="fill-rule:evenodd;clip-rule:evenodd;stroke-linecap:round;stroke-linejoin:round;stroke-miterlimit:1.5;">
    <g id="Numbers">
        <path d="M28.139,7.814L28.139,17.079" style="fill:none;stroke:white;stroke-width:4.17px;"/>
        <path d="M82.54,7.22C85.004,7.22 87.438,7.346 89.785,7.933C90.527,8.118 92.064,8.193 92.517,8.646C92.947,9.076 92.254,10.621 92.161,10.902C91.516,12.837 89.364,14.12 88.478,15.891C88.309,16.23 86.966,17.23 87.172,17.435C87.441,17.704 89.522,17.435 89.904,17.435L97.624,17.435" style="fill:none;stroke:white;stroke-width:4.17px;"/>
        <path d="M55.933,35.964C58.284,35.964 62.196,35.576 63.535,36.915C63.619,36.999 63.248,37.796 63.179,37.865C62.629,38.414 61.254,39.102 60.922,39.765C60.841,39.928 59.843,40.23 60.091,40.478C61.072,41.459 62.654,42.329 63.535,43.21C64.373,44.048 63.243,45.91 62.704,46.179C60.398,47.332 55.937,47.486 53.083,47.486" style="fill:none;stroke:white;stroke-width:4.17px;"/>
        <path d="M26.239,66.134C26.239,68.408 24.19,72.4 25.764,73.973C26.637,74.847 29.808,75.399 31.227,75.399C31.534,75.399 32.816,75.71 32.89,75.636C33.248,75.279 32.579,72.237 32.415,72.073C31.994,71.652 32.296,70.291 32.296,70.291C32.296,70.291 32.073,71.018 32.296,71.242C32.569,71.514 32.653,72.852 32.653,73.38C32.653,74.881 32.617,78.451 33.484,79.318C33.861,79.695 33.586,82.05 34.078,82.05" style="fill:none;stroke:white;stroke-width:4.17px;"/>
        <path d="M81.946,68.747C81.946,69.759 81.471,73.143 82.064,73.736C82.234,73.905 83.107,73.69 83.252,73.617C83.903,73.292 85.609,73.617 86.34,73.617C89.008,73.617 91.797,74.203 93.348,75.755C93.684,76.09 92.602,77.791 92.398,77.893C90.811,78.686 90.672,82.106 88.241,79.675" style="fill:none;stroke:white;stroke-width:4.17px;"/>
        <path d="M83.727,68.747C84.111,68.364 86.292,68.51 86.816,68.51C89.498,68.51 92.112,67.916 94.655,67.916" style="fill:none;stroke:white;stroke-width:4.17px;"/>
        <path d="M62.585,93.453C57.694,93.453 54.544,99.675 52.489,103.787C51.763,105.239 49.914,107.901 50.826,109.726C51.507,111.088 53.226,111.579 54.508,112.22C57.048,113.49 61.867,110.428 60.447,107.588C59.312,105.318 57.916,104.6 55.815,103.549C54.436,102.86 51.42,103.559 51.42,104.618" style="fill:none;stroke:white;stroke-width:4.17px;"/>
        <path d="M7.591,45.11C7.591,45.258 7.835,47.004 8.303,46.536C8.728,46.111 8.891,44.892 9.135,44.16C9.566,42.866 10.401,41.432 10.798,40.24C10.902,39.929 12.052,38.525 12.104,38.578C13.569,40.042 13.971,43.024 14.836,44.754C14.974,45.029 15.292,47.13 15.43,47.13" style="fill:none;stroke:white;stroke-width:4.17px;"/>
        <path d="M11.154,43.923C12.459,43.923 14.23,43.685 15.192,43.685" style="fill:none;stroke:white;stroke-width:4.17px;"/>
        <path d="M103.207,37.509C103.207,39.438 103.095,42.001 102.494,43.804C102.305,44.372 102.494,45.327 102.494,45.942L102.494,47.011L102.494,45.823C102.494,45.254 102.433,44.213 102.257,43.685C101.62,41.775 100.846,36.611 102.613,35.727C104.427,34.82 106.962,36.157 107.839,37.033C108.127,37.321 107.711,38.478 107.602,38.696C107.271,39.357 106.973,39.919 106.533,40.359C106.403,40.489 105.284,41.011 105.583,41.309C106.594,42.321 108.052,42.901 109.383,43.566C109.773,43.761 110.684,43.797 110.928,44.041C111.346,44.46 111.622,45.092 112.115,45.585C113.255,46.726 110.41,47.388 109.977,47.605C109.156,48.015 107.464,47.723 106.533,47.723C104.623,47.723 102.486,48.317 100.831,48.317" style="fill:none;stroke:white;stroke-width:4.17px;"/>
        <path d="M15.311,98.204C13.805,98.204 10.85,97.796 9.847,98.798C7.829,100.817 9.801,104.81 11.154,106.162C12.358,107.366 14.326,107.748 15.905,108.538C17.022,109.096 19.355,108.775 20.656,108.775C20.893,108.775 22.082,108.873 22.082,108.657" style="fill:none;stroke:white;stroke-width:4.17px;"/>
        <path d="M97.506,97.373C97.506,98.884 98.236,101.328 98.931,102.718C99.272,103.399 100,104.737 100,104.737C100,104.737 99.644,104.207 99.644,103.905C99.644,103.325 99.297,102.381 99.05,101.886C98.39,100.567 97.387,98.437 97.387,97.016C97.387,96.43 96.862,95.879 97.387,95.353C97.852,94.889 100.768,95.189 101.425,95.353C105.355,96.336 108.556,97.97 110.928,100.342C111.7,101.114 109.889,102.668 109.383,102.836C106.648,103.748 102.105,105.806 99.287,105.806" style="fill:none;stroke:white;stroke-width:4.17px;"/>
    </g>
    <g id="Artboard1" transform="matrix(1,0,0,1,-313.665,-126.83)">
        <rect x="313.665" y="126.83" width="118.313" height="118.024" style="fill:none;"/>
        <clipPath id="_clip1">
            <rect x="313.665" y="126.83" width="118.313" height="118.024"/>
        </clipPath>
        <g clip-path="url(#_clip1)">
            <g transform="matrix(1.01701,0,0,1,-755.15,-676.872)">
                <rect x="1049.51" y="803.631" width="118.011" height="118.163" style="fill:rgb(217,217,217);"/>
            </g>
            <g id="Bricks" transform="matrix(1,0,0,1,-735.296,-676.872)">
                <g transform="matrix(1,0,0,1,931.342,685.52)">
                    <path d="M118.556,118.496C118.742,118.496 125.018,118.223 128.143,118.223C129.175,118.223 140.701,118.178 141.463,118.178C142.761,118.178 152.125,118.403 152.989,118.403C154.603,118.403 156.278,118.492 157.877,118.492C158.613,118.492 166.413,118.627 167.743,118.627C173.07,118.627 178.382,118.672 183.709,118.672C185.108,118.672 186.427,118.492 187.835,118.492C188.408,118.492 200.497,118.223 202.186,118.223C203.86,118.223 223.802,118.582 224.61,118.582C224.842,118.582 232.507,118.717 235.18,118.717" style="fill:none;stroke:rgb(172,172,172);stroke-width:2.08px;"/>
                </g>
                <g transform="matrix(1,0,0,1,931.342,685.52)">
                    <path d="M235.456,205.071C235.456,202.479 235.504,193.58 235.504,193.018C235.504,192.896 235.294,188.682 235.294,188.113C235.294,186.455 235.163,188.01 235.163,176.074" style="fill:none;stroke:rgb(172,172,172);stroke-width:2.08px;"/>
                </g>
                <g transform="matrix(1,0,0,1,931.342,685.52)">
                    <path d="M235.874,118.659C235.874,120.003 235.94,121.375 235.94,122.678C235.94,122.976 235.806,129.607 235.806,131.334C235.806,132.149 235.809,145.362 235.809,145.659" style="fill:none;stroke:rgb(172,172,172);stroke-width:2.08px;"/>
                </g>
                <g transform="matrix(1,0,0,-1.60612,931.342,1300.7)">
                    <path d="M117.775,235.514C118.535,235.514 148.636,235.604 149.864,235.603C155.29,235.6 164.089,235.59 165.669,235.59C170.271,235.59 175.644,235.533 180.294,235.533C181.579,235.533 196.901,235.582 200.469,235.582C205.457,235.582 236.118,235.594 236.573,235.594" style="fill:none;stroke:rgb(172,172,172);stroke-width:1.56px;"/>
                </g>
                <g transform="matrix(1,0,0,1,931.342,685.52)">
                    <path d="M117.898,204.768C117.898,203.573 117.949,197.814 117.949,197.153C117.949,191.764 118.224,186.679 118.224,181.42C118.224,181.013 118.215,177.465 118.226,176.965" style="fill:none;stroke:rgb(172,172,172);stroke-width:2.08px;"/>
                </g>
                <g transform="matrix(1,0,0,1,931.342,685.52)">
                    <path d="M117.796,145.937C117.796,145.003 117.607,139.201 117.554,132.418C117.502,125.844 117.936,119.703 117.936,118.83" style="fill:none;stroke:rgb(172,172,172);stroke-width:2.08px;"/>
                </g>
                <g transform="matrix(1,0,0,1,931.342,685.52)">
                    <path d="M235.765,145.887C230.459,145.887 226.47,145.492 221.097,145.492L216.946,145.492C216.577,145.492 213.357,145.682 211.987,145.714C211.862,145.717 211.753,145.719 211.662,145.719C211.56,145.719 203.676,145.87 203.057,145.87C200.191,145.87 197.439,146.172 194.528,146.172C193.01,146.172 191.588,146.247 190.074,146.247C189.615,146.247 186.896,146.322 186.376,146.322C185.117,146.322 183.945,146.398 182.677,146.398L173.393,146.398C172.774,146.398 162.592,146.172 161.844,146.172L152.333,146.172C148.378,146.172 133.044,146.339 131.878,146.339C127.349,146.339 122.379,146.224 117.85,146.224" style="fill:none;stroke:rgb(172,172,172);stroke-width:2.08px;"/>
                </g>
                <g transform="matrix(1,0,0,1,931.342,685.52)">
                    <path d="M117.126,176.306C119.498,176.306 123.287,176.44 125.839,176.44C127.019,176.44 131.268,176.289 131.651,176.289C132.883,176.289 137.762,176.138 138.445,176.138L165.845,176.138C166.801,176.138 173.594,175.987 174.601,175.987C177.084,175.987 179.55,175.76 181.998,175.76C182.586,175.76 191.011,175.458 191.886,175.458C195.026,175.458 198.211,175.534 201.321,175.534C212.594,175.534 224.082,176.062 235.363,176.062" style="fill:none;stroke:rgb(172,172,172);stroke-width:2.08px;"/>
                </g>
                <g transform="matrix(1,0,0,1,931.342,685.52)">
                    <path d="M236.188,205.074C235.528,205.074 225.102,205.047 224.268,205.047L217.248,205.047C209.266,205.047 201.233,204.821 193.245,204.821C188.104,204.821 183.109,204.67 177.922,204.67C176.67,204.67 164.385,205.349 163.429,205.349C160.161,205.349 156.783,205.425 153.466,205.425C141.774,205.425 129.545,205.033 117.975,205.033" style="fill:none;stroke:rgb(172,172,172);stroke-width:2.08px;"/>
                </g>
                <g transform="matrix(-0.999908,0,0,0.978202,1284.75,688.113)">
                    <path d="M176.79,146.624C176.79,137.578 176.714,128.325 176.714,118.923" style="fill:none;stroke:rgb(172,172,172);stroke-width:2.11px;"/>
                </g>
                <g transform="matrix(1,0,0,0.96962,931.342,689.979)">
                    <path d="M146.672,176.591C146.975,176.288 146.963,171.77 146.963,171.382C146.963,170.158 146.892,159.139 146.565,158.813C146.481,158.728 146.219,148.872 146.219,146.775" style="fill:none;stroke:rgb(172,172,172);stroke-width:2.12px;"/>
                </g>
                <g transform="matrix(1,0,0,1,931.342,685.52)">
                    <path d="M207.133,175.232C207.133,172.901 207.209,170.606 207.209,168.288C207.209,167.432 206.378,155.707 206.378,154.927C206.378,151.776 206.68,149.072 206.68,145.945" style="fill:none;stroke:rgb(172,172,172);stroke-width:2.08px;"/>
                </g>
                <g transform="matrix(0.909118,0,0,0.979275,947.327,689.165)">
                    <path d="M176.312,205.09C176.312,203.842 175.884,188.847 175.884,187.837C175.884,185.941 176.035,184.114 176.035,182.252C176.035,181.684 176.318,177.124 176.318,176.112" style="fill:none;stroke:rgb(172,172,172);stroke-width:2.2px;"/>
                </g>
                <g transform="matrix(1,0,0,1,931.342,685.52)">
                    <path d="M147.074,236.023C147.074,232.198 146.912,228.547 146.912,224.678C146.912,223.73 147.065,222.117 147.065,221.118C147.065,220.87 146.521,207.71 146.521,205.802" style="fill:none;stroke:rgb(172,172,172);stroke-width:2.08px;"/>
                </g>
                <g transform="matrix(0.841087,0,0,0.972772,964.119,691.132)">
                    <path d="M206.982,206.104C206.982,207.598 206.303,216.185 206.303,217.728L206.303,220.672C206.303,220.828 207.192,234.128 207.192,236.623" style="fill:none;stroke:rgb(172,172,172);stroke-width:2.29px;"/>
                </g>
            </g>
        </g>
    </g>
</svg>
