<?xml version="1.0" encoding="UTF-8" standalone="no"?>
<!DOCTYPE svg PUBLIC "-//W3C//DTD SVG 1.1//EN" "http://www.w3.org/Graphics/SVG/1.1/DTD/svg11.dtd">
<svg width="100%" height="100%" viewBox="0 0 9934 14044" version="1.1" xmlns="http://www.w3.org/2000/svg" xmlns:xlink="http://www.w3.org/1999/xlink" xml:space="preserve" xmlns:serif="http://www.serif.com/" style="fill-rule:evenodd;clip-rule:evenodd;stroke-linecap:round;stroke-linejoin:round;stroke-miterlimit:1.5;">
    <g id="Hand">
        <path d="M4522.74,4186.43C4531.1,4187.84 4545.86,4188.86 4545.51,4184.35C4544.95,4177.1 4542.82,4155.18 4542.82,4148.4C4545.74,4148.4 4559.19,4148.98 4564.06,4142.54C4568.66,4136.47 4565.93,4122.19 4564.38,4119.79C4561.47,4115.29 4559.03,4120.16 4558.83,4120.35C4558.13,4121.05 4556.29,4133.33 4556.29,4133.33C4556.29,4132.73 4550.68,4131.44 4550.73,4130.71C4551.41,4121.3 4557.85,4084.97 4548.84,4094.76C4547.94,4095.74 4542.05,4129.33 4542.05,4125.9C4542.05,4117.76 4543.33,4099.9 4543.33,4092.08C4543.33,4088.4 4541.38,4086.46 4541.38,4086.46C4541.38,4086.46 4539.03,4084.41 4538.32,4092.98C4538.17,4094.78 4536.19,4125.82 4536.27,4125.9C4536.4,4126.04 4534.08,4104.48 4533.27,4100.33C4530.75,4087.35 4529.02,4089.85 4528.56,4090.76C4527.48,4092.93 4527.6,4119.8 4527.58,4119.64C4527.41,4117.38 4523.17,4095.04 4521.47,4096.74C4518.76,4099.45 4519.53,4108.79 4519.53,4109C4519.53,4110.74 4522.43,4128.06 4523.26,4147.62C4524.03,4165.82 4522.74,4186.43 4522.74,4186.43Z" style="fill:rgb(183,183,183);stroke:black;stroke-width:4.17px;"/>
    </g>
</svg>
