<?xml version="1.0" encoding="UTF-8" standalone="no"?>
<!DOCTYPE svg PUBLIC "-//W3C//DTD SVG 1.1//EN" "http://www.w3.org/Graphics/SVG/1.1/DTD/svg11.dtd">
<svg width="100%" height="100%" viewBox="0 0 9934 14044" version="1.1" xmlns="http://www.w3.org/2000/svg" xmlns:xlink="http://www.w3.org/1999/xlink" xml:space="preserve" xmlns:serif="http://www.serif.com/" style="fill-rule:evenodd;clip-rule:evenodd;stroke-linecap:round;stroke-linejoin:round;stroke-miterlimit:1.5;">
    <g id="Dog">
        <path d="M3985.37,4137.04C3983.63,4137.5 3981.8,4136.98 3980.07,4137.51C3973.48,4139.53 3966.58,4141.34 3959.8,4143.03C3957.18,4143.69 3954.72,4145.25 3952.2,4146.26C3950.14,4147.08 3948.83,4147.98 3947.13,4149.25C3944.56,4151.18 3943.83,4153.48 3942.07,4155.24C3940.73,4156.57 3943.3,4159.93 3943.91,4160.54C3948.09,4164.73 3952.65,4168.89 3958.19,4172.06C3963.15,4174.89 3968.79,4176.39 3974.09,4178.51C3982.61,4181.92 3991.92,4183.09 4001.04,4184.5C4009.85,4185.85 4018.94,4184.7 4027.76,4185.88C4037.65,4187.2 4049.19,4187.04 4059.09,4185.88C4070.25,4184.57 4081.38,4184.59 4092.49,4182.65C4113.57,4178.98 4134.12,4176.31 4151.46,4163.3C4152.62,4162.43 4153.57,4160.42 4153.99,4159.16C4156.59,4151.35 4146.69,4146.17 4140.17,4143.73C4138.06,4142.94 4136.41,4141.75 4134.18,4141.19C4131.63,4140.55 4129.45,4138.95 4126.81,4138.43C4123.75,4137.82 4120.84,4136.48 4117.82,4135.66C4113.99,4134.62 4110.03,4133.92 4106.31,4132.67C4103.47,4131.72 4100.25,4131.84 4097.32,4131.29C4086.32,4129.22 4075.66,4129.11 4064.61,4128.06C4045.15,4126.21 4024.28,4127.09 4005.18,4130.59C3996.7,4132.15 3987.78,4132.71 3979.61,4135.43C3975.48,4136.81 3970.2,4135.99 3966.25,4137.97" style="fill:rgb(171,171,171);stroke:black;stroke-width:4.17px;"/>
        <path d="M3922.49,4130.82C3921,4135.29 3925.33,4141.5 3928.01,4144.19C3942.47,4158.65 3970.51,4159.2 3988.14,4149.02C3991.33,4147.18 3994.88,4145.97 3997.58,4143.26C4003.06,4137.79 4005.85,4129.77 4004.49,4121.61C4002.42,4109.16 3995.12,4097.24 3984.68,4090.28C3977.08,4085.22 3966.94,4083.16 3957.96,4081.53C3945.97,4079.35 3930.12,4078.18 3919.03,4084.52C3916.29,4086.09 3913.46,4088.41 3910.97,4090.28C3908.49,4092.14 3907.31,4097.09 3906.59,4099.96C3904.16,4109.7 3906.09,4118.81 3913.04,4125.76C3915.35,4128.07 3918.35,4130.59 3921.8,4130.59" style="fill:rgb(171,171,171);stroke:black;stroke-width:4.17px;"/>
        <path d="M3938.34,4132.27C3938.34,4129.69 3945.39,4128.94 3947.59,4128.57C3956.76,4127.04 3966.02,4126.35 3975.5,4126.35C3977.73,4126.35 3983.43,4125.96 3984.93,4127.46C3985.33,4127.86 3986.41,4127.55 3986.41,4128.2" style="fill:none;stroke:black;stroke-width:4.17px;"/>
        <path d="M3934.46,4106.38C3932.72,4106.38 3933.65,4108.45 3935.2,4107.68C3935.86,4107.35 3937.58,4105.09 3935.94,4105.09" style="fill:none;stroke:black;stroke-width:4.17px;"/>
        <path d="M3961.27,4105.27C3961.27,4104.31 3959.07,4104.51 3958.68,4104.9C3958.11,4105.48 3959.53,4105.75 3959.6,4105.83C3960.21,4106.44 3963.11,4106.76 3963.86,4106.01C3965.21,4104.66 3961.49,4103.06 3960.71,4103.06" style="fill:none;stroke:black;stroke-width:4.17px;"/>
        <path d="M3910.05,4094.2C3902.08,4089.42 3895.53,4083.83 3892.54,4074.85C3892.06,4073.42 3892.55,4071.65 3892.08,4070.24C3891.66,4068.97 3891.65,4066.69 3892.08,4065.41C3895.33,4055.65 3908.09,4057.4 3916.27,4061.49C3922.7,4064.71 3929.73,4071.34 3931.47,4078.31C3932.81,4083.65 3930.63,4087.44 3927.32,4090.74C3927,4091.07 3924.85,4094.03 3924.33,4093.51C3924.04,4093.22 3924.72,4092.36 3924.1,4092.36" style="fill:rgb(171,171,171);stroke:black;stroke-width:4.17px;"/>
        <path d="M3960.03,4090.28C3960.52,4090.77 3961.39,4091.69 3961.88,4091.2C3962.44,4090.64 3961.59,4088.26 3961.42,4087.75C3960.47,4084.92 3960.49,4081.1 3960.49,4078.07C3960.49,4070.42 3959.31,4057.18 3968.79,4054.81C3971.85,4054.04 3974.84,4053.89 3978.23,4053.89C3981.07,4053.89 3983.63,4053.92 3986.29,4054.81C3990.64,4056.26 3993.55,4057.22 3996.66,4060.34C3999.1,4062.78 3998.96,4068.35 3998.96,4071.62C3998.96,4082.63 3993.3,4094.86 3982.84,4098.35C3977.7,4100.06 3969.82,4096.56 3965.56,4094.43C3964.31,4093.8 3962.39,4091.66 3960.95,4091.66" style="fill:rgb(171,171,171);stroke:black;stroke-width:4.17px;"/>
        <path d="M4138.1,4148.1C4138.1,4153.29 4143.46,4144.78 4144.78,4143.03C4151.52,4134.03 4158.29,4123.25 4166.89,4116.08C4169.33,4114.05 4172.04,4111.16 4174.26,4108.94C4174.74,4108.46 4176.13,4106.43 4176.56,4106.87C4177.31,4107.61 4174.31,4112.65 4174.03,4113.78C4173.36,4116.47 4172,4119.41 4170.35,4121.61C4168.5,4124.07 4167.86,4128.01 4165.74,4130.13C4163.93,4131.94 4147.42,4151.82 4145.85,4153.39" style="fill:rgb(171,171,171);stroke:black;stroke-width:4.17px;"/>
        <path d="M3953.16,4191.6C3953.16,4191.6 3953.5,4189.92 3954.04,4189.1C3955.59,4186.79 3960.36,4177.76 3963.42,4175.31C3964.33,4174.58 3982.5,4179.42 3982.31,4179.7C3980.95,4181.74 3971.13,4182.34 3968.6,4184.03C3966.03,4185.74 3970.63,4188.55 3953.16,4191.6Z" style="fill:rgb(171,171,171);stroke:black;stroke-width:4.17px;"/>
        <path d="M4118.74,4172.86C4123.1,4175.04 4120.76,4174.8 4125.43,4177.36C4131.98,4180.95 4138.37,4184.19 4145.47,4187.03C4149.7,4188.72 4154.61,4189.98 4159.06,4190.72C4160.54,4190.96 4162.15,4190.95 4163.66,4190.95C4164.44,4190.95 4165.97,4191.18 4165.97,4191.18C4165.97,4191.18 4163.06,4190.03 4161.82,4189.1C4159.23,4187.16 4156.19,4185.94 4153.53,4184.04C4148.69,4180.58 4143.34,4177.7 4138.33,4174.36C4136.02,4172.82 4132.44,4171.93 4130.49,4169.98" style="fill:rgb(171,171,171);stroke:black;stroke-width:4.17px;"/>
        <path d="M4002.67,4177.5C4002.53,4177.57 3981.59,4205.85 3981.86,4197.81C3982.02,4192.72 3987.56,4173.56 3992.3,4172.15" style="fill:rgb(171,171,171);stroke:black;stroke-width:4.17px;"/>
        <path d="M4107,4181.73C4107.74,4182.1 4106.22,4180.44 4107,4181.73C4110.94,4188.31 4112.19,4196.84 4117.59,4202.23C4118.48,4203.12 4118.28,4199.26 4118.28,4199.01C4118.28,4195.59 4117.49,4192.44 4116.67,4189.33C4115.04,4183.15 4116.05,4186.23 4114.52,4180.13" style="fill:rgb(171,171,171);stroke:black;stroke-width:4.17px;"/>
    </g>
</svg>
