<?xml version="1.0" encoding="UTF-8" standalone="no"?>
<!DOCTYPE svg PUBLIC "-//W3C//DTD SVG 1.1//EN" "http://www.w3.org/Graphics/SVG/1.1/DTD/svg11.dtd">
<svg width="100%" height="100%" viewBox="0 0 119 119" version="1.1" xmlns="http://www.w3.org/2000/svg" xmlns:xlink="http://www.w3.org/1999/xlink" xml:space="preserve" xmlns:serif="http://www.serif.com/" style="fill-rule:evenodd;clip-rule:evenodd;stroke-linecap:round;stroke-linejoin:round;stroke-miterlimit:1.5;">
    <g id="Artboard1" transform="matrix(1,0,0,1,-313.665,-126.83)">
        <rect x="313.665" y="126.83" width="118.313" height="118.024" style="fill:none;"/>
        <clipPath id="_clip1">
            <rect x="313.665" y="126.83" width="118.313" height="118.024"/>
        </clipPath>
        <g clip-path="url(#_clip1)">
            <g transform="matrix(1.01701,0,0,1,-755.15,-676.872)">
                <rect x="1049.51" y="803.631" width="118.011" height="118.163" style="fill:rgb(217,217,217);"/>
            </g>
            <g transform="matrix(1,0,0,1,-735.296,-676.872)">
                <g transform="matrix(1,0,0,1,931.342,685.52)">
                    <path d="M118.556,118.496C118.742,118.496 125.018,118.223 128.143,118.223C129.175,118.223 140.701,118.178 141.463,118.178C142.761,118.178 152.125,118.403 152.989,118.403C154.603,118.403 156.278,118.492 157.877,118.492C158.613,118.492 166.413,118.627 167.743,118.627C173.07,118.627 178.382,118.672 183.709,118.672C185.108,118.672 186.427,118.492 187.835,118.492C188.408,118.492 200.497,118.223 202.186,118.223C203.86,118.223 223.802,118.582 224.61,118.582C224.842,118.582 232.507,118.717 235.18,118.717" style="fill:none;stroke:rgb(172,172,172);stroke-width:2.08px;"/>
                </g>
                <g transform="matrix(1,0,0,1,931.342,685.52)">
                    <path d="M235.456,205.071C235.456,202.479 235.504,193.58 235.504,193.018C235.504,192.896 235.294,188.682 235.294,188.113C235.294,186.455 235.163,188.01 235.163,176.074" style="fill:none;stroke:rgb(172,172,172);stroke-width:2.08px;"/>
                </g>
                <g transform="matrix(1,0,0,1,931.342,685.52)">
                    <path d="M235.874,118.659C235.874,120.003 235.94,121.375 235.94,122.678C235.94,122.976 235.806,129.607 235.806,131.334C235.806,132.149 235.809,145.362 235.809,145.659" style="fill:none;stroke:rgb(172,172,172);stroke-width:2.08px;"/>
                </g>
                <g transform="matrix(1,0,0,-1.60612,931.342,1300.7)">
                    <path d="M117.775,235.514C118.535,235.514 148.636,235.604 149.864,235.603C155.29,235.6 164.089,235.59 165.669,235.59C170.271,235.59 175.644,235.533 180.294,235.533C181.579,235.533 196.901,235.582 200.469,235.582C205.457,235.582 236.118,235.594 236.573,235.594" style="fill:none;stroke:rgb(172,172,172);stroke-width:1.56px;"/>
                </g>
                <g transform="matrix(1,0,0,1,931.342,685.52)">
                    <path d="M117.898,204.768C117.898,203.573 117.949,197.814 117.949,197.153C117.949,191.764 118.224,186.679 118.224,181.42C118.224,181.013 118.215,177.465 118.226,176.965" style="fill:none;stroke:rgb(172,172,172);stroke-width:2.08px;"/>
                </g>
                <g transform="matrix(1,0,0,1,931.342,685.52)">
                    <path d="M117.796,145.937C117.796,145.003 117.607,139.201 117.554,132.418C117.502,125.844 117.936,119.703 117.936,118.83" style="fill:none;stroke:rgb(172,172,172);stroke-width:2.08px;"/>
                </g>
                <g transform="matrix(1,0,0,1,931.342,685.52)">
                    <path d="M235.765,145.887C230.459,145.887 226.47,145.492 221.097,145.492L216.946,145.492C216.577,145.492 213.357,145.682 211.987,145.714C211.862,145.717 211.753,145.719 211.662,145.719C211.56,145.719 203.676,145.87 203.057,145.87C200.191,145.87 197.439,146.172 194.528,146.172C193.01,146.172 191.588,146.247 190.074,146.247C189.615,146.247 186.896,146.322 186.376,146.322C185.117,146.322 183.945,146.398 182.677,146.398L173.393,146.398C172.774,146.398 162.592,146.172 161.844,146.172L152.333,146.172C148.378,146.172 133.044,146.339 131.878,146.339C127.349,146.339 122.379,146.224 117.85,146.224" style="fill:none;stroke:rgb(172,172,172);stroke-width:2.08px;"/>
                </g>
                <g transform="matrix(1,0,0,1,931.342,685.52)">
                    <path d="M117.126,176.306C119.498,176.306 123.287,176.44 125.839,176.44C127.019,176.44 131.268,176.289 131.651,176.289C132.883,176.289 137.762,176.138 138.445,176.138L165.845,176.138C166.801,176.138 173.594,175.987 174.601,175.987C177.084,175.987 179.55,175.76 181.998,175.76C182.586,175.76 191.011,175.458 191.886,175.458C195.026,175.458 198.211,175.534 201.321,175.534C212.594,175.534 224.082,176.062 235.363,176.062" style="fill:none;stroke:rgb(172,172,172);stroke-width:2.08px;"/>
                </g>
                <g transform="matrix(1,0,0,1,931.342,685.52)">
                    <path d="M236.188,205.074C235.528,205.074 225.102,205.047 224.268,205.047L217.248,205.047C209.266,205.047 201.233,204.821 193.245,204.821C188.104,204.821 183.109,204.67 177.922,204.67C176.67,204.67 164.385,205.349 163.429,205.349C160.161,205.349 156.783,205.425 153.466,205.425C141.774,205.425 129.545,205.033 117.975,205.033" style="fill:none;stroke:rgb(172,172,172);stroke-width:2.08px;"/>
                </g>
                <g transform="matrix(1,0,0,0.96962,931.342,689.979)">
                    <path d="M146.672,176.591C146.975,176.288 146.963,171.77 146.963,171.382C146.963,170.158 146.892,159.139 146.565,158.813C146.481,158.728 146.219,148.872 146.219,146.775" style="fill:none;stroke:rgb(172,172,172);stroke-width:2.12px;"/>
                </g>
                <g transform="matrix(0.841087,0,0,0.972772,964.119,691.132)">
                    <path d="M206.982,206.104C206.982,207.598 206.303,216.185 206.303,217.728L206.303,220.672C206.303,220.828 207.192,234.128 207.192,236.623" style="fill:none;stroke:rgb(172,172,172);stroke-width:2.29px;"/>
                </g>
            </g>
        </g>
    </g>
</svg>
